<svg xmlns="http://www.w3.org/2000/svg" height="800" width="1200" viewBox="-45 -36.34725 390 218.0835"><defs><clipPath id="a"><path d="M368.945 267.399h87.254v42.286h-87.254z"/></clipPath></defs><path d="M300 145.39H0V0h300z" fill="#0085d0" fill-opacity=".996"/><path d="M118.665 109.258h-6.526V98.183h1.416v9.864h5.11zm1.567.002h1.378V98.19h-1.378zm7.926-.002h-1.33l-3.73-11.075h1.443l3.084 9.135 3.057-9.135h1.21zm5.225.002h1.375V98.19h-1.375z" fill="#fff"/><g clip-path="url(#a)" transform="matrix(3.43824 0 0 -3.43824 -1268.52 1064.77)" fill="#fff"><path d="M410.891 277.908l-1.666 2.805c0-.091 0-.164.004-.212.006-.106.006-.18.006-.203v-2.39h-.324v3.22h.502l1.561-2.627c0 .102-.005.175-.005.222-.005.12-.005.204-.005.237v2.169h.319v-3.221zm3.573-.044h-.246l-.112.406c-.226-.3-.496-.43-.893-.43-.801 0-1.337.662-1.337 1.647 0 1.013.56 1.704 1.395 1.704.604 0 .98-.3 1.159-.931l-.381-.092c-.116.449-.391.68-.806.68-.575 0-.928-.511-.928-1.351 0-.832.358-1.328.956-1.328.454 0 .783.347.783.825v.063c0 .038 0 .092-.005.135h-.797v.338h1.212zm2.043.98c.15-.444.459-.657.95-.657.489 0 .774.223.774.6 0 .236-.184.424-.493.497l-.642.164c-.541.135-.791.406-.791.864 0 .527.434.88 1.086.88.575 0 .97-.27 1.149-.793l-.362-.1c-.096.356-.396.563-.821.563-.372 0-.662-.227-.662-.525 0-.257.15-.396.527-.489l.598-.144c.55-.13.83-.43.83-.889 0-.589-.467-.97-1.196-.97-.677 0-1.063.275-1.31.921zm3.865.706c.376 0 .633.245.633.607 0 .377-.242.633-.604.633h-.768v-1.24zm-1.14-1.642v3.22h1.14c.638 0 1.043-.376 1.043-.966 0-.55-.415-.946-.999-.946h-.783v-1.308zm2.964 1.583c0-.786.362-1.318.903-1.318.546 0 .898.541.898 1.372 0 .811-.348 1.317-.903 1.317-.55 0-.898-.53-.898-1.371m2.222.054c0-.995-.547-1.7-1.32-1.7-.796 0-1.322.661-1.322 1.651 0 1.01.536 1.696 1.323 1.696.783 0 1.319-.672 1.319-1.647m1.82.087c.41 0 .666.23.666.603 0 .334-.236.54-.618.54h-.888v-1.143zm.676-1.724l-.594 1.395h-.922v-1.395h-.377v3.22h1.265c.604 0 1.02-.366 1.02-.897 0-.406-.208-.696-.6-.831l.632-1.492zm1.629 0v2.868h-.923v.353h2.246v-.353h-.922v-2.868zm1.828.936c.15-.444.458-.657.952-.657.487 0 .772.223.772.6 0 .236-.184.424-.492.497l-.643.164c-.54.135-.79.406-.79.864 0 .527.433.88 1.085.88.575 0 .97-.27 1.15-.793l-.363-.1c-.097.356-.396.563-.82.563-.373 0-.663-.227-.663-.525 0-.257.15-.396.527-.489l.598-.144c.551-.13.831-.43.831-.889 0-.589-.469-.97-1.197-.97-.677 0-1.063.275-1.309.921zm-22.175 10.339c0-2.025-.202-2.891-.866-3.61-.699-.791-1.657-1.123-3.22-1.123-1.033 0-1.512.056-2.506.295v2.928c.552-.147 1.013-.221 1.473-.221 1.105 0 1.492.442 1.492 1.73v7.735h3.627zm7.005.534l-.994 3.572-.995-3.572zm.663-2.67h-3.296l-.737-2.413h-3.056l3.793 12.283h3.977l3.85-12.283h-3.85zm12.411-2.412l-2.117 4.64-1.27-1.804v-2.836h-3.555v12.283h3.554v-5.064l3.388 5.064h3.388l-3.093-4.493 3.848-7.79z"/><path d="M436.175 290.711c0-2.357.57-3.48 1.786-3.48 1.29 0 1.786 1.068 1.786 3.885 0 2.173-.57 3.205-1.748 3.205-1.18 0-1.824-1.29-1.824-3.61m7.623.185c0-3.83-2.338-6.446-5.763-6.446-3.554 0-5.911 2.505-5.911 6.298 0 3.812 2.32 6.353 5.8 6.353 3.59 0 5.874-2.412 5.874-6.205m-62.066-5.399c6.438 1.802 11.02.134 11.02.134-.001.003 1.623 5.35 1.623 5.35s-6.791-.09-13.492-4.287c.318-.537.5-.768.849-1.197"/><path d="M379.046 290.541c0 4.724 3.843 8.567 8.567 8.567s8.567-3.843 8.567-8.567-3.843-8.567-8.567-8.567-8.567 3.844-8.567 8.567m-.783 0c0-5.156 4.195-9.35 9.35-9.349 5.155 0 9.35 4.194 9.35 9.35 0 5.155-4.195 9.348-9.35 9.348-5.155.001-9.35-4.194-9.35-9.349"/><path d="M380.553 287.338c4.475 3.079 9.701 4.32 9.701 4.32v6.164s-4.221-1.952-10.174-9.11c.152-.577.256-.882.473-1.374"/></g></svg>