<svg xmlns="http://www.w3.org/2000/svg" height="800" width="1200" viewBox="-48.525 -84.418 420.55 506.508"><defs><clipPath id="a"><path d="M0 0h330v338H0z"/></clipPath></defs><g transform="translate(-4)" clip-path="url(#a)"><path fill="#1a1918" d="M125.639 281.148v-14.911q0-36 .016-72.006a944.4 944.4 0 01.363-23.683 56.157 56.157 0 018.248-28.686c5.089-8.192 12.279-13.928 20.939-17.932a80.992 80.992 0 0125.345-6.7 95.017 95.017 0 0125.009.472c7.42 1.141 14.865 2.46 21.586 5.914 16.38 8.414 26.943 21.394 30.147 39.841a117.019 117.019 0 011.3 18.559c.044 3.445.058 6.893-.03 10.337-.053 2.071-.683 2.552-2.732 2.57-6.248.054-12.5.123-18.743.173-2.15.018-3.2-.888-3.324-3.057-.154-2.718-.2-5.443-.241-8.167-.082-6.032 0-12.07-.212-18.1-.429-12.265-4.786-22.859-13.919-31.257a42.112 42.112 0 00-45.9-6.273c-10.618 5.478-18.073 13.723-21.026 25.452a57.983 57.983 0 00-1.259 11.846c-.232 5.954-.191 11.92-.183 17.881.022 16.669.16 33.337.094 50.006a164.874 164.874 0 01-.842 16.972c-1.389 12.91-7.878 22.534-19.416 28.623a54.824 54.824 0 01-5.22 2.126z"/><path fill="#191918" d="M126.92 294.798c10.713-2.094 10.713-2.094 23.757-7.842.172 2.147.3 4.271.519 6.387 1.559 15.332 9.283 26.439 23.023 33.338 3.471 1.743 7.293 2.3 11.13 2.654a64.855 64.855 0 0015.468-.206c10.414-1.524 18.222-7.045 24.058-15.617a44.84 44.84 0 008.018-23.729c.3-7.133.432-14.273.619-21.411.049-1.9-.032-3.8.055-5.7.1-2.276 1.236-3.363 3.528-3.5 1.075-.064 2.154-.068 3.231-.067q7.33.007 14.659.034c2.6.008 3.666.836 3.648 3.407-.044 6.348-.1 12.7-.454 19.039a62.987 62.987 0 01-3.211 17.187c-5.842 16.825-17.291 28.187-33.945 34.3-9.75 3.58-19.9 4.768-30.245 4.581a91.036 91.036 0 01-32.159-6.108 52.72 52.72 0 01-26.127-21.667 44.746 44.746 0 01-5.572-15.08zm27.509-173.554V80.953c.06-2.576 1.022-3.589 3.625-3.6q9.968-.048 19.937 0c2.509.012 3.4.93 3.567 3.437.03.465.036.933.036 1.4v32.2a88.674 88.674 0 00-27.165 6.854z"/><g fill="#191918"><path d="M167.987 227.336a5.619 5.619 0 00-5.67 5.507 5.505 5.505 0 005.616 5.453 5.624 5.624 0 005.736-5.485 5.344 5.344 0 00-1.658-3.882 5.776 5.776 0 00-4.024-1.593z"/><path d="M181.593 129.308v-1.3a37.686 37.686 0 00-14.153 7.343c-5.536 4.762-9.919 10.367-12.015 17.487-1.391 4.727-1.557 9.628-1.587 14.506-.058 9.483.044 18.967.041 28.451q-.006 20.91-.071 41.82a98.384 98.384 0 01-1.108 15.446 37.51 37.51 0 01-17.679 26.784c-8.577 5.426-17.9 6.174-27.531 3.405-11.4-3.278-19.577-10.225-23.708-21.526a81.278 81.278 0 01-4.151-20.181c-.559-5.747-.907-11.516-1.353-17.275-.179-2.309-1.089-3.245-3.4-3.28-6.606-.1-13.212-.155-19.818-.22a4.66 4.66 0 00-.962.089c-2.006.4-3.179 1.886-3.1 4.525.137 4.442.265 8.906.8 13.312 1.867 15.371 9 28.047 20.653 38.044 17.2 14.762 37.281 18.8 59.128 14.388 16-3.229 28.718-12.1 38.895-24.681 5.612-6.936 9.4-14.791 10.14-23.782.571-6.967.91-13.973.933-20.964.103-30.802.046-61.596.046-92.391zm-18.535 18.535a3.859 3.859 0 011.483-.513l.131-.022.185 1.21-.142.011a2.332 2.332 0 00-2.432 2.148c.011.741.6 2.148 2.693 2.148h8.669v-.61h.567v2.41h-.589v-.546h-7.589a5.345 5.345 0 01-2.988-.588 3.452 3.452 0 01.011-5.649zm11.155 19.41v1.635h-.578v-.534h-11.3v.534h-.578v-2.391h.469l.087.055.011.065.011.491h9.564l-6.674-2.661 6.346-2.66h-9.236v.556h-.578v-1.941h.578v.621h11.3v-.621h.578v1.461l-6.52 2.794zm0 10.054v1.646h-.578v-.546h-11.3v.546h-.578v-2.4h.578v.611h9.564l-6.674-2.65 6.346-2.672h-9.236v.556h-.578v-1.941h.578v.621h11.3v-.621h.578v1.461l-6.52 2.793zm-5.747 7.317l5.169 2.05v-.567h.578v1.9h-.578v-.546l-6.172-2.464h-5.125v.873h-.578v-2.923h.578v.774h5.147l6.15-3.009v-.557h.578v2.432h-.578v-.546zm5.169-25.931v-.546h-11.3v.546h-.578v-2.356h.578v.578h11.3v-.578h.578v2.36zm-5.649 80.824a6.714 6.714 0 116.4-6.706 6.565 6.565 0 01-6.398 6.705zm0-14.306a6.714 6.714 0 116.4-6.707 6.565 6.565 0 01-6.398 6.706zm2.236-15.921v-3.643h-7.884v.546h-.578v-2.396h.578v.6h11.3v-.6h.578v2.4h-.578v-.546h-2.726v3.643h2.726v-.611h.578l-.011 2.421h-.567v-.556h-11.3v.567h-.578v-2.431h.578v.611zm4.166-7.8v.556h-2.639v-.567h1.09a4.63 4.63 0 00.84-2.7 5.568 5.568 0 00-5.7-5.333 5.507 5.507 0 00-5.659 5.474 5.349 5.349 0 001.254 3.49l.077.109-.425.392-.087-.1a5.682 5.682 0 01-1.538-3.882 6.4 6.4 0 1112.791 0 6.822 6.822 0 01-.5 2.563z"/><path d="M167.987 213.026a5.482 5.482 0 10-.055 10.959 5.624 5.624 0 005.736-5.485 5.345 5.345 0 00-1.658-3.882 5.775 5.775 0 00-4.023-1.592z"/></g><path d="M197.312 37.951a18.769 18.769 0 01-12.242 4.4c-10.788 0-19.2-8.723-19.2-19.855 0-10.941 8.225-19.741 18.708-20.008a16.251 16.251 0 019.488 2.946v3.824h1.989V0h-1.995v1.76A24.376 24.376 0 00185.108 0c-12.969 0-23.528 10.062-23.528 22.457 0 12.357 10.559 22.419 23.528 22.419a19.947 19.947 0 0013.619-5.394l.344-.306-1.377-1.492zM140.117 2.64h1.989l-7.192 18.134-9.066-18.134h1.913V.612h-8.57V2.64h1.989l10.559 21.572v18.062h-2.716v2.028h10.253v-2.028h-3.061V24.293l8.646-21.653h1.913V.612h-6.657zm-98.128 0h1.913V.612h-8.225V2.64h2.028v39.634h-2.028v2.028h8.263v-2.028h-1.951zm58.15 20.85L90.345.612h-5.126V2.64h2.142v39.634h-2.142v2.028h6.81v-2.028h-1.951v-32.4l9.335 22.265 9.334-23.417v33.552h-2.142v2.028h8.414v-2.028h-1.913V2.64h1.913V.612h-5.777zm-35.273 0L55.073.612h-5.126V2.64h2.142v39.634h-2.181v2.028h6.81v-2.028h-1.91v-32.4l9.335 22.265 9.331-23.417v33.552l-1.722.038-.23.038-.191.306v1.645h8.34v-2.027h-1.875V2.64h1.912V.612h-5.777zM225.851 2.64h1.951V.612h-8.493V2.64h2.1v9.564h-12.74V2.64h1.913V.612h-8.45V2.64h2.142v39.634h-2.142v2.028h8.417v-2.028h-1.875V14.612h12.74v27.66h-2.1V44.3h8.493v-2.026h-1.951zM21.177 2.601h2.143v30.411c0 7.345-4.935 9.411-7.537 9.449-2.41-.038-7.116-1.913-7.537-8.531l-.038-.5L4 34.087l.077.459a13.593 13.593 0 001.8 5.2 12.113 12.113 0 0019.817.038c1.913-2.984 2.066-6.5 2.066-10.482V2.678h1.91V.612h-8.493zM253.779 0c-12.969 0-23.528 10.062-23.528 22.457 0 12.357 10.559 22.457 23.528 22.457s23.528-10.062 23.528-22.457C277.307 10.062 266.751 0 253.779 0zm-.115 42.35c-10.712 0-19.09-8.723-19.09-19.894A20.26 20.26 0 01240.16 8.34a18.75 18.75 0 0113.619-5.815c10.6 0 19.243 9.029 19.243 20.123a19.385 19.385 0 01-19.358 19.702zM303.972 0c-12.969 0-23.528 10.062-23.528 22.457 0 12.357 10.559 22.457 23.528 22.457S327.5 34.852 327.5 22.457C327.5 10.062 316.944 0 303.972 0zm.077 42.35c-10.674-.038-19.32-8.99-19.32-19.855a20.261 20.261 0 015.585-14.117 18.7 18.7 0 0113.62-5.853c10.6 0 19.243 9.029 19.243 20.123 0 10.98-8.378 19.626-19.133 19.702z"/></g></svg>