<svg xmlns="http://www.w3.org/2000/svg" height="800" width="1200" class="logo" viewBox="-52.779 -3.848 457.418 23.088"><path d="M20.977 9.192H3.559v6.199H0V0h20.978c1.696 0 3.063 1.367 3.063 3.088v3.017c-.001 1.696-1.367 3.087-3.064 3.087zm-.495-5.539c0-.377-.283-.683-.66-.683H3.559v3.228h16.263c.377 0 .66-.283.66-.66zm28.315 11.738H30.414c-1.698 0-3.064-1.367-3.064-3.088V3.088C27.35 1.367 28.717 0 30.414 0h18.384c1.698 0 3.088 1.367 3.088 3.088v9.215c-.001 1.721-1.391 3.088-3.089 3.088zm-.495-11.738c0-.377-.283-.683-.66-.683H31.569c-.377 0-.66.306-.66.683v8.085c0 .377.283.66.66.66h16.074c.377 0 .66-.282.66-.66V3.653zm28.293 11.738v-1.084c0-3.465-1.485-5.115-4.525-5.115H59.555v6.199h-3.558V0h20.765c1.72 0 3.087 1.367 3.087 3.088v3.017c0 1.201-.8 2.168-1.886 2.522 1.532 1.084 2.193 2.946 2.193 5.35v1.414zm-.306-11.738c0-.377-.283-.683-.683-.683H59.555v3.228h16.051c.401 0 .683-.283.683-.66zm28.742 11.738H84.053v-2.993h19.823c.377 0 .66-.282.66-.66V9.852c0-.377-.283-.661-.66-.661H87.117c-1.696 0-3.064-1.39-3.064-3.087V3.088C84.053 1.367 85.421 0 87.117 0h20.506v2.97H88.272c-.377 0-.66.306-.66.683v1.886c0 .377.283.66.66.66h16.758c1.696 0 3.063 1.391 3.063 3.088v3.017c.001 1.72-1.366 3.087-3.062 3.087zm10.261 0c-1.698 0-3.064-1.367-3.064-3.088V3.088c0-1.721 1.367-3.088 3.064-3.088h20.034v2.97h-18.879c-.377 0-.66.306-.66.683v8.085c0 .377.283.66.66.66h18.879v2.993zm43.282 0V9.192h-15.956v6.199h-3.559V0h3.559v6.198h15.956V0h3.559v15.391zm7.835 0V0h24.041v2.97h-20.481v3.228h20.011v2.993h-20.011v3.206h20.481v2.993h-24.041zm61.317 0H206.75V0h20.976c1.65 0 3.064 1.319 3.064 2.97v9.333c0 1.721-1.366 3.088-3.064 3.088zm-.494-11.738c0-.377-.284-.683-.66-.683h-16.264v9.428h16.264c.376 0 .66-.282.66-.66zm7.716 11.738V0h24.041v2.97h-20.481v3.228h20.011v2.993h-20.011v3.206h20.481v2.993h-24.041zm49.057 0h-20.976v-2.993h19.821c.378 0 .66-.282.66-.66V9.852c0-.377-.281-.661-.66-.661h-16.757c-1.698 0-3.064-1.39-3.064-3.087V3.088c0-1.721 1.367-3.088 3.064-3.088h20.506v2.97h-19.351c-.378 0-.66.306-.66.683v1.886c0 .377.281.66.66.66h16.757c1.698 0 3.064 1.391 3.064 3.088v3.017c0 1.72-1.366 3.087-3.064 3.087zm7.576 0V0h3.559v15.391zm28.898 0H302.59c-1.696 0-3.064-1.367-3.064-3.088V3.088c0-1.721 1.368-3.088 3.064-3.088h20.978v2.97h-19.823c-.377 0-.66.306-.66.683v8.085c0 .377.283.66.66.66h15.603c.376 0 .66-.282.66-.66V9.191h-8.107V6.198h11.667v6.105c0 1.721-1.368 3.088-3.089 3.088zm27.822 0L331.379 3.843v11.549h-3.56V0h3.56L348.3 11.549V0h3.56v15.391z" class="st0"/></svg>